<?xml version="1.0" encoding="UTF-8" standalone="no"?>
<svg
   width="200"
   height="50"
   viewBox="0 0 200 50"
   version="1.1"
   id="svg1"
   xmlns="http://www.w3.org/2000/svg"
   xmlns:svg="http://www.w3.org/2000/svg">
  <g id="DRIMIX">
    <path d="M 20,5 H 5 V 45 H 20 C 30,45 35,35 35,25 35,15 30,5 20,5 Z" style="fill:#003049" />
    <path d="m 45,5 v 40 h 15 V 30 L 75,45 H 95 L 60,25 95,5 H 75 L 60,20 V 5 Z" style="fill:#c1121f" />
    <path d="m 100,5 v 40 h 15 V 5 Z" style="fill:#003049" />
    <path d="m 125,5 v 40 h 15 V 30 l 5,15 h 10 l 5,-15 v 15 h 15 V 5 h -15 l -10,30 -10,-30 z" style="fill:#003049" />
    <path d="m 180,5 v 40 h 15 V 5 Z" style="fill:#003049" />
  </g>
</svg>
