<?xml version="1.0" encoding="UTF-8"?>
<svg id="Layer_1" data-name="Layer 1" xmlns="http://www.w3.org/2000/svg" viewBox="0 0 201 80">
  <defs>
    <style>
      .cls-1 {
        fill: #c12126;
      }

      .cls-2 {
        fill: #003049;
      }
    </style>
  </defs>
  <path class="cls-2" d="M.67,67.34V12.66h13.92c4.8,0,8.53.6,11.2,1.79,2.67,1.19,4.55,3.06,5.63,5.6,1.09,2.54,1.63,5.84,1.63,9.89v19.85c0,4.1-.54,7.44-1.63,10.02-1.09,2.59-2.95,4.49-5.6,5.7-2.65,1.22-6.35,1.82-11.1,1.82H.67ZM12.82,58.97h1.9c1.86,0,3.19-.27,4.01-.81.81-.54,1.32-1.35,1.53-2.43s.31-2.43.31-4.05v-23.83c0-1.62-.12-2.92-.37-3.91-.25-.99-.78-1.71-1.59-2.16-.81-.45-2.13-.67-3.94-.67h-1.83v37.87Z"/>
  <path class="cls-1" d="M40.45,67.34V12.66h15.14c3.71,0,6.92.4,9.64,1.22,2.72.81,4.83,2.26,6.35,4.35,1.52,2.09,2.27,5.05,2.27,8.88,0,2.25-.18,4.25-.54,6.01-.36,1.76-1.03,3.27-2,4.56-.97,1.28-2.37,2.35-4.17,3.21l7.54,26.46h-12.56l-6.04-24.5h-3.46v24.5h-12.15ZM52.61,35.88h3.39c1.72,0,3.06-.3,4.01-.91.95-.61,1.62-1.49,2-2.63.38-1.15.58-2.53.58-4.15,0-2.34-.43-4.16-1.29-5.47-.86-1.3-2.44-1.96-4.75-1.96h-3.94v15.12Z"/>
  <path class="cls-2" d="M81.25,67.34V12.66h12.15v54.68h-12.15Z"/>
  <path class="cls-2" d="M101.42,67.34l.95-54.68h13.03l6.04,31.79,6.52-31.79h12.56l.95,54.68h-8.62l-1.02-36.38-6.38,36.38h-7.67l-6.79-36.65-.81,36.65h-8.76Z"/>
  <path class="cls-2" d="M149.48,67.34V12.66h12.15v54.68h-12.15Z"/>
  <path class="cls-2" d="M166.25,67.34l10.66-29.43-10.18-25.25h11.47l6.04,14.78,4.89-14.78h10.12l-9.64,28.42,10.73,26.26h-11.4l-6.72-16.34-5.91,16.34h-10.05Z"/>
</svg>